<svg id="Layer_1" enable-background="new 0 0 512.822 512.822" height="512" viewBox="0 0 512.822 512.822" width="512" xmlns="http://www.w3.org/2000/svg"><path d="m510.694 431.298c1.111-1.915 2.122-4.458 2.126-7.67v-334.431c.098-7.665-6.627-15.21-15-15h-482.816c-7.666-.099-15.208 6.627-15 15v334.432c.03 7.522 6.166 15.113 15.035 15h482.759c4.321-.068 10.044-2.163 12.896-7.331zm-480.69-312.004 179.991 135.72-179.991 138.187zm256.786 111.85c-17.168 13.082-41.194 13.141-58.425.148l-168.553-127.095h393.575zm-45.982 38.036c5.488 1.185 11.078 1.791 16.67 1.791 7.054 0 14.106-.955 20.953-2.84l176.468 140.497h-395.725zm66.79-16.173 175.223-133.521v273.027z"/></svg>